HIERARCHY
ROOT root
{
	OFFSET	0	13.1	24.9
	CHANNELS 6  Xposition Yposition Zposition Xrotation Yrotation Zrotation
	JOINT spine_1
	{
		OFFSET	0	9.99999	0
		CHANNELS 3  Xrotation Yrotation Zrotation
		JOINT spine_2
		{
			OFFSET	0	112	-10
			CHANNELS 3  Xrotation Yrotation Zrotation
			JOINT spine_3
			{
				OFFSET	0	206.5	19.3
				CHANNELS 3  Xrotation Yrotation Zrotation
				JOINT spine_4
				{
					OFFSET	0	110.4	14.6
					CHANNELS 3  Xrotation Yrotation Zrotation
					JOINT neck_1
					{
						OFFSET	0	71.8	-50.3
						CHANNELS 3  Xrotation Yrotation Zrotation
						JOINT neck_2
						{
							OFFSET	0	86.2	-25.8
							CHANNELS 3  Xrotation Yrotation Zrotation
							JOINT head_ee
							{
								OFFSET	0	179.8	-8.7
								CHANNELS 3  Xrotation Yrotation Zrotation
								End Site
								{
									OFFSET	1	0	0
								}
							}
						}
					}
					JOINT left_clavicle
					{
						OFFSET	-43.2	22.4	-70.8
						CHANNELS 3  Xrotation Yrotation Zrotation
						JOINT left_shoulder
						{
							OFFSET	-93.9	-5.79999	48.7
							CHANNELS 3  Xrotation Yrotation Zrotation
							JOINT left_elbow
							{
								OFFSET	-291.4	-30.8	15.2
								CHANNELS 3  Xrotation Yrotation Zrotation
								JOINT left_lowarm_twist
								{
									OFFSET	-110.7	-3.89999	13.6
									CHANNELS 3  Xrotation Yrotation Zrotation
									JOINT left_hand
									{
										OFFSET	-110.7	-3.89999	13.6
										CHANNELS 3  Xrotation Yrotation Zrotation
										JOINT left_ee
										{
											OFFSET	-80.8	-5.10001	12.1
											CHANNELS 3  Xrotation Yrotation Zrotation
											End Site
											{
												OFFSET	1	0	0
											}
										}
									}
								}
							}
						}
					}
					JOINT right_clavicle
					{
						OFFSET	43.2	22.4	-70.8
						CHANNELS 3  Xrotation Yrotation Zrotation
						JOINT right_shoulder
						{
							OFFSET	93.9	-5.79999	48.7
							CHANNELS 3  Xrotation Yrotation Zrotation
							JOINT right_elbow
							{
								OFFSET	291.4	-30.8	15.2
								CHANNELS 3  Xrotation Yrotation Zrotation
								JOINT right_lowarm_twist
								{
									OFFSET	110.7	-3.89999	13.6
									CHANNELS 3  Xrotation Yrotation Zrotation
									JOINT right_hand
									{
										OFFSET	110.7	-3.89999	13.6
										CHANNELS 3  Xrotation Yrotation Zrotation
										JOINT right_ee
										{
											OFFSET	80.8	-5.10001	12.1
											CHANNELS 3  Xrotation Yrotation Zrotation
											End Site
											{
												OFFSET	1	0	0
											}
										}
									}
								}
							}
						}
					}
				}
			}
		}
	}
	JOINT left_hip
	{
		OFFSET	-82.8	-127.5	0.300001
		CHANNELS 3  Xrotation Yrotation Zrotation
		JOINT left_knee
		{
			OFFSET	-28.2	-396.7	2.2
			CHANNELS 3  Xrotation Yrotation Zrotation
			JOINT left_ankle
			{
				OFFSET	-11.7	-411.3	35.4
				CHANNELS 3  Xrotation Yrotation Zrotation
				JOINT left_toes
				{
					OFFSET	0	-60	-88.6
					CHANNELS 3  Xrotation Yrotation Zrotation
					JOINT left_foot_ee
					{
						OFFSET	-22.5	-16.5	-42.2
						CHANNELS 3  Xrotation Yrotation Zrotation
						End Site
						{
							OFFSET	1	0	0
						}
					}
				}
			}
		}
	}
	JOINT right_hip
	{
		OFFSET	82.8	-127.5	0.300001
		CHANNELS 3  Xrotation Yrotation Zrotation
		JOINT right_knee
		{
			OFFSET	28.2	-396.7	2.2
			CHANNELS 3  Xrotation Yrotation Zrotation
			JOINT right_ankle
			{
				OFFSET	11.7	-411.3	35.4
				CHANNELS 3  Xrotation Yrotation Zrotation
				JOINT right_toes
				{
					OFFSET	0	-60	-88.6
					CHANNELS 3  Xrotation Yrotation Zrotation
					JOINT right_foot_ee
					{
						OFFSET	22.5	-16.5	-42.2
						CHANNELS 3  Xrotation Yrotation Zrotation
						End Site
						{
							OFFSET	1	0	0
						}
					}
				}
			}
		}
	}
}
MOTION
Frames: 6
Frame Time: 0.02
2837.35 735.523 -1478.82 -3.72293 44.3671 -2.54388 2.94735 0.70619 4.69376 2.95951 0.406425 4.72907 2.98951 -0.350528 4.73353 2.95848 0.400586 4.72957 -11.6764 18.8469 -4.20581 -12.5255 38.4025 1.63521 -0.0 0.0 -0.0 -5.51035 11.8135 -7.97074 0.731874 -10.645 47.416 2.62359 -52.415 1.29156 5.74466 0.16669 -0.714557 -0.92178 0.231372 -6.06545 -0.0 0.0 -0.0 13.7605 24.9872 -27.5624 -30.8344 45.4497 -65.5998 0.611077 16.8417 -0.0904641 4.10998 -0.126569 0.509603 -5.41694 -28.732 18.3612 0.0 0.0 0.0 -10.0208 36.4064 14.8352 8.96415 -0.471417 -1.2926 23.8237 -12.7579 -3.38717 -7.81469 0.0 0.0 -0.0 0.0 -0.0 41.6617 40.0229 -21.7711 -30.3715 -0.0296583 -4.60663 1.40997 -29.2601 0.220112 36.1521 -0.0 -0.0 0.0 0.0 0.0 
2826.73 734.009 -1476.43 -4.72949 44.8111 -2.20027 3.11825 0.684119 4.80984 3.13103 0.377038 4.84351 3.15854 -0.38357 4.843 3.12603 0.385184 4.84287 -11.8572 19.0837 -3.64705 -12.7658 38.5082 2.3288 -0.0 0.0 -0.0 -5.51022 11.2319 -8.11786 2.02495 -10.7325 47.0264 2.84296 -54.6124 1.46797 4.93825 0.147629 -0.61331 -1.02268 1.15203 -6.33539 -0.0 0.0 -0.0 13.6548 24.5842 -27.3603 -31.992 45.1434 -65.807 0.591262 16.3251 -0.0848086 5.30409 -0.156453 0.65921 -5.63495 -29.0446 19.3752 0.0 0.0 0.0 -10.0051 37.6786 15.966 8.11361 -0.418042 -1.17324 23.2298 -13.7762 -3.33531 -9.68425 0.0 0.0 -0.0 0.0 -0.0 43.6929 40.3578 -22.1348 -28.8743 -0.0855358 -4.38365 4.30217 -28.8682 0.665291 35.7659 -0.0 -0.0 0.0 0.0 0.0 
2817.44 733.218 -1476.65 -5.82299 44.5088 -1.85626 3.28587 0.752499 4.97671 3.29954 0.434701 5.01437 3.3323 -0.337881 5.02181 3.29742 0.458439 5.01227 -11.5425 19.0717 -3.48687 -12.3836 38.3668 2.34459 -0.0 0.0 -0.0 -5.36877 10.9776 -7.93364 3.45455 -9.57398 46.3651 2.98061 -55.88 1.58108 4.08279 0.125852 -0.506204 -1.14622 1.04956 -7.20938 -0.0 0.0 -0.0 13.2616 21.1175 -26.7709 -33.4471 45.6884 -64.8566 0.614631 16.9341 -0.0914965 5.61681 -0.163763 0.698489 -5.74035 -28.0964 20.7535 0.0 0.0 0.0 -10.7888 37.6241 16.2594 4.96202 -0.235904 -0.724503 24.4289 -16.1325 -3.54064 -11.0271 0.0 0.0 -0.0 0.0 -0.0 46.3734 40.5403 -22.7449 -25.6027 -0.187223 -3.89194 3.97946 -26.1645 0.605801 36.5289 -0.0 -0.0 0.0 0.0 0.0 
2796.16 728.646 -1477.39 -5.8818 45.8999 -2.34233 3.30247 0.723622 5.10267 3.31686 0.397898 5.13825 3.34689 -0.392103 5.13869 3.31031 0.423279 5.13623 -9.75555 18.2628 -4.01993 -10.1795 37.0702 0.840741 -0.0 0.0 -0.0 -5.0607 11.5595 -7.25362 4.58653 -8.37587 45.979 3.58466 -60.5988 2.0951 2.78357 0.0897246 -0.344178 -1.26611 1.45055 -7.83463 -0.0 0.0 -0.0 12.2152 19.2224 -24.4815 -36.1325 47.0924 -64.9111 0.670588 18.376 -0.108469 5.01766 -0.149569 0.623268 -5.94379 -26.5484 23.2507 0.0 0.0 0.0 -12.4246 39.2359 17.429 1.81945 -0.0791891 -0.267952 26.4371 -18.4565 -3.85373 -12.6113 0.0 0.0 -0.0 0.0 -0.0 46.6064 42.2554 -23.0149 -21.8756 -0.26864 -3.32588 5.05112 -23.2206 0.755237 34.9348 -0.0 -0.0 0.0 0.0 0.0 
2786.66 727.206 -1475.48 -6.27846 45.8735 -2.75748 3.45215 0.796298 5.0977 3.46648 0.470743 5.1379 3.50249 -0.305744 5.15031 3.46585 0.510391 5.13412 -10.4375 19.267 -3.20908 -11.0707 38.4821 2.21622 -0.0 0.0 -0.0 -4.66612 11.885 -6.49525 4.93563 -7.04911 46.1052 4.1764 -64.1836 2.61973 0.741254 0.0255271 -0.0912281 -1.21743 0.63567 -7.87304 -0.0 0.0 -0.0 12.8481 20.4344 -25.8604 -37.495 45.2961 -64.8304 0.683274 18.6997 -0.112502 6.87518 -0.191007 0.856922 -6.22432 -27.7582 23.9525 0.0 0.0 0.0 -12.3376 39.6927 17.737 -0.837414 0.0335744 0.124125 25.8192 -20.8594 -3.85651 -13.3442 0.0 0.0 -0.0 0.0 -0.0 47.0278 42.0647 -22.2786 -21.7794 -0.270252 -3.31121 6.3344 -19.4925 0.929453 33.8263 -0.0 -0.0 0.0 0.0 0.0 
2776.64 729.248 -1475.98 -6.34304 45.2638 -2.60841 3.28838 0.81296 4.99037 3.3021 0.494174 5.03184 3.34021 -0.28086 5.0482 3.30504 0.518901 5.02935 -10.2998 18.9365 -2.63906 -10.877 37.4746 2.60171 -0.0 0.0 -0.0 -4.59514 13.7568 -5.9387 5.76848 -6.37631 45.9015 4.89537 -67.5663 3.27618 1.51222 0.0508218 -0.18645 -0.966076 1.0972 -5.98063 -0.0 0.0 -0.0 12.4817 19.1547 -25.1006 -38.095 45.8119 -64.961 0.702135 19.1786 -0.118624 6.62449 -0.185858 0.825314 -6.36106 -26.98 25.4807 0.0 0.0 0.0 -14.3802 41.7446 19.6328 -0.569871 0.0230456 0.0844163 26.6553 -18.1209 -3.86984 -15.1501 0.0 0.0 -0.0 0.0 -0.0 45.9014 41.9046 -21.3219 -17.3421 -0.31781 -2.63218 3.88757 -19.1082 0.573513 34.3937 -0.0 -0.0 0.0 0.0 0.0 
